<mxfile host="app.diagrams.net" modified="2024-01-14T20:12:55.737Z" agent="Mozilla/5.0 (Windows NT 10.0; Win64; x64) AppleWebKit/537.36 (KHTML, like Gecko) Chrome/120.0.0.0 Safari/537.36" etag="W-7ZcknViC_-ODM5c3hl" version="22.1.18" type="device">
  <diagram name="Page-1" id="CVJn42-BbzFffaGKhZ_h">
    <mxGraphModel dx="936" dy="482" grid="1" gridSize="10" guides="1" tooltips="1" connect="1" arrows="1" fold="1" page="1" pageScale="1" pageWidth="850" pageHeight="1100" math="0" shadow="0">
      <root>
        <mxCell id="0" />
        <mxCell id="1" parent="0" />
        <mxCell id="xeJy3UkIXeySLxT7kvr--5" style="edgeStyle=orthogonalEdgeStyle;rounded=0;orthogonalLoop=1;jettySize=auto;html=1;entryX=0;entryY=0.5;entryDx=0;entryDy=0;exitX=1;exitY=0.5;exitDx=0;exitDy=0;" edge="1" parent="1" source="xeJy3UkIXeySLxT7kvr--1" target="xeJy3UkIXeySLxT7kvr--2">
          <mxGeometry relative="1" as="geometry" />
        </mxCell>
        <mxCell id="xeJy3UkIXeySLxT7kvr--6" style="edgeStyle=orthogonalEdgeStyle;rounded=0;orthogonalLoop=1;jettySize=auto;html=1;exitX=1;exitY=0.5;exitDx=0;exitDy=0;entryX=0;entryY=0.5;entryDx=0;entryDy=0;" edge="1" parent="1" source="xeJy3UkIXeySLxT7kvr--1" target="xeJy3UkIXeySLxT7kvr--3">
          <mxGeometry relative="1" as="geometry" />
        </mxCell>
        <mxCell id="xeJy3UkIXeySLxT7kvr--7" style="edgeStyle=orthogonalEdgeStyle;rounded=0;orthogonalLoop=1;jettySize=auto;html=1;exitX=1;exitY=0.5;exitDx=0;exitDy=0;entryX=0;entryY=0.5;entryDx=0;entryDy=0;" edge="1" parent="1" source="xeJy3UkIXeySLxT7kvr--1" target="xeJy3UkIXeySLxT7kvr--4">
          <mxGeometry relative="1" as="geometry" />
        </mxCell>
        <mxCell id="xeJy3UkIXeySLxT7kvr--1" value="Authentication service&amp;nbsp;" style="rounded=0;whiteSpace=wrap;html=1;" vertex="1" parent="1">
          <mxGeometry x="180" y="250" width="120" height="60" as="geometry" />
        </mxCell>
        <mxCell id="xeJy3UkIXeySLxT7kvr--2" value="Booking Service" style="rounded=0;whiteSpace=wrap;html=1;" vertex="1" parent="1">
          <mxGeometry x="490" y="130" width="120" height="60" as="geometry" />
        </mxCell>
        <mxCell id="xeJy3UkIXeySLxT7kvr--3" value="Flights search service" style="rounded=0;whiteSpace=wrap;html=1;" vertex="1" parent="1">
          <mxGeometry x="490" y="250" width="120" height="60" as="geometry" />
        </mxCell>
        <mxCell id="xeJy3UkIXeySLxT7kvr--4" value="Notification service" style="rounded=0;whiteSpace=wrap;html=1;" vertex="1" parent="1">
          <mxGeometry x="490" y="360" width="120" height="60" as="geometry" />
        </mxCell>
        <mxCell id="xeJy3UkIXeySLxT7kvr--8" value="API Gateway&amp;nbsp;" style="text;html=1;align=center;verticalAlign=middle;resizable=0;points=[];autosize=1;strokeColor=none;fillColor=none;" vertex="1" parent="1">
          <mxGeometry x="190" y="198" width="100" height="30" as="geometry" />
        </mxCell>
      </root>
    </mxGraphModel>
  </diagram>
</mxfile>
